<?xml version="1.0" encoding="UTF-8" standalone="no"?>
<svg xmlns:svg="http://www.w3.org/2000/svg"
xmlns="http://www.w3.org/2000/svg" version="1.1"
width="360" height="185">
<!-- Created with the Wikimedia parliament diagram creator (http://parliamentdiagram.toolforge.org/parliamentinputform.html) -->
<g>
<switch style="font-size:36px;font-weight:bold;text-align:center;text-anchor:middle;font-family:Sans-serif"><text x="175" y="175" style="font-size:36px;font-weight:bold;text-align:center;text-anchor:middle;font-family:Noto Sans Bengali" id="trsvg2-bn" systemLanguage="bn"><tspan id="trsvg1-bn">৩৪২</tspan></text><text x="175" y="175" style="font-size:36px;font-weight:bold;text-align:center;text-anchor:middle;font-family:Sans-serif" id="trsvg2"><tspan id="trsvg1">342</tspan></text></switch>
  <g style="fill:#D984E3; stroke-width:0.00; stroke:#000000" id="JWP">
    <circle cx="10.05" cy="176.00" r="4.00"/>
  </g>
  <g style="fill:#FF0800; stroke-width:0.00; stroke:#000000" id="ANP">
    <circle cx="20.05" cy="176.00" r="4.00"/>
  </g>
  <g style="fill:#000000; stroke-width:0.00; stroke:#000000" id="PPP">
    <circle cx="30.05" cy="176.00" r="4.00"/>
    <circle cx="40.06" cy="176.00" r="4.00"/>
    <circle cx="50.06" cy="176.00" r="4.00"/>
    <circle cx="60.07" cy="176.00" r="4.00"/>
    <circle cx="70.07" cy="176.00" r="4.00"/>
    <circle cx="80.08" cy="176.00" r="4.00"/>
    <circle cx="90.09" cy="176.00" r="4.00"/>
    <circle cx="100.10" cy="176.00" r="4.00"/>
    <circle cx="10.68" cy="164.83" r="4.00"/>
    <circle cx="20.75" cy="164.52" r="4.00"/>
    <circle cx="30.81" cy="164.45" r="4.00"/>
    <circle cx="40.88" cy="164.36" r="4.00"/>
    <circle cx="50.96" cy="164.26" r="4.00"/>
    <circle cx="61.00" cy="164.51" r="4.00"/>
    <circle cx="71.11" cy="164.41" r="4.00"/>
    <circle cx="12.04" cy="153.72" r="4.00"/>
    <circle cx="81.24" cy="164.29" r="4.00"/>
    <circle cx="22.27" cy="153.12" r="4.00"/>
    <circle cx="91.41" cy="164.14" r="4.00"/>
    <circle cx="32.45" cy="152.99" r="4.00"/>
    <circle cx="101.51" cy="164.51" r="4.00"/>
    <circle cx="42.66" cy="152.83" r="4.00"/>
    <circle cx="52.91" cy="152.65" r="4.00"/>
    <circle cx="14.14" cy="142.73" r="4.00"/>
    <circle cx="63.04" cy="153.17" r="4.00"/>
    <circle cx="24.61" cy="141.86" r="4.00"/>
    <circle cx="73.37" cy="153.00" r="4.00"/>
    <circle cx="34.98" cy="141.69" r="4.00"/>
    <circle cx="83.77" cy="152.80" r="4.00"/>
    <circle cx="45.40" cy="141.49" r="4.00"/>
    <circle cx="16.95" cy="131.89" r="4.00"/>
    <circle cx="55.90" cy="141.27" r="4.00"/>
    <circle cx="94.29" cy="152.55" r="4.00"/>
    <circle cx="27.75" cy="130.80" r="4.00"/>
    <circle cx="66.15" cy="142.07" r="4.00"/>
    <circle cx="38.36" cy="130.62" r="4.00"/>
    <circle cx="104.57" cy="153.35" r="4.00"/>
    <circle cx="20.47" cy="121.27" r="4.00"/>
    <circle cx="76.81" cy="141.89" r="4.00"/>
    <circle cx="49.07" cy="130.42" r="4.00"/>
    <circle cx="31.68" cy="119.99" r="4.00"/>
    <circle cx="59.92" cy="130.20" r="4.00"/>
    <circle cx="87.63" cy="141.68" r="4.00"/>
    <circle cx="42.59" cy="119.84" r="4.00"/>
    <circle cx="70.32" cy="131.32" r="4.00"/>
    <circle cx="24.68" cy="110.90" r="4.00"/>
    <circle cx="98.67" cy="141.45" r="4.00"/>
    <circle cx="53.66" cy="119.69" r="4.00"/>
    <circle cx="36.38" cy="109.49" r="4.00"/>
    <circle cx="81.42" cy="131.20" r="4.00"/>
    <circle cx="64.91" cy="119.54" r="4.00"/>
    <circle cx="29.56" cy="100.83" r="4.00"/>
    <circle cx="109.21" cy="142.74" r="4.00"/>
    <circle cx="47.64" cy="109.42" r="4.00"/>
  </g>
  <g style="fill:#FFF700; stroke-width:0.00; stroke:#000000" id="BNP(M)">
    <circle cx="92.77" cy="131.09" r="4.00"/>
    <circle cx="75.49" cy="121.02" r="4.00"/>
    <circle cx="41.81" cy="99.35" r="4.00"/>
    <circle cx="59.12" cy="109.38" r="4.00"/>
  </g>
  <g style="fill:#8F0303; stroke-width:0.00; stroke:#000000" id="MQM(P)">
    <circle cx="35.09" cy="91.11" r="4.00"/>
    <circle cx="87.12" cy="121.06" r="4.00"/>
    <circle cx="53.48" cy="99.42" r="4.00"/>
    <circle cx="70.86" cy="109.38" r="4.00"/>
    <circle cx="104.49" cy="131.03" r="4.00"/>
    <circle cx="47.96" cy="89.63" r="4.00"/>
    <circle cx="81.63" cy="111.27" r="4.00"/>
  </g>
  <g style="fill:#769C1E; stroke-width:0.00; stroke:#000000" id="GDA">
    <circle cx="65.42" cy="99.56" r="4.00"/>
    <circle cx="41.26" cy="81.76" r="4.00"/>
    <circle cx="99.12" cy="121.19" r="4.00"/>
  </g>
  <g style="fill:#FF0F0F; stroke-width:0.00; stroke:#000000" id="PTI">
    <circle cx="115.33" cy="132.91" r="4.00"/>
    <circle cx="60.07" cy="89.90" r="4.00"/>
    <circle cx="77.69" cy="99.79" r="4.00"/>
    <circle cx="93.87" cy="111.58" r="4.00"/>
    <circle cx="54.80" cy="80.38" r="4.00"/>
    <circle cx="48.02" cy="72.85" r="4.00"/>
    <circle cx="72.52" cy="90.29" r="4.00"/>
    <circle cx="88.68" cy="102.15" r="4.00"/>
    <circle cx="111.63" cy="121.47" r="4.00"/>
    <circle cx="67.38" cy="80.92" r="4.00"/>
    <circle cx="62.27" cy="71.65" r="4.00"/>
    <circle cx="106.59" cy="112.09" r="4.00"/>
    <circle cx="55.36" cy="64.40" r="4.00"/>
    <circle cx="85.37" cy="90.87" r="4.00"/>
    <circle cx="122.80" cy="124.07" r="4.00"/>
    <circle cx="101.58" cy="102.86" r="4.00"/>
    <circle cx="80.36" cy="81.66" r="4.00"/>
    <circle cx="75.36" cy="72.53" r="4.00"/>
    <circle cx="96.57" cy="93.75" r="4.00"/>
    <circle cx="63.23" cy="56.45" r="4.00"/>
    <circle cx="70.36" cy="63.47" r="4.00"/>
    <circle cx="119.98" cy="112.93" r="4.00"/>
    <circle cx="93.82" cy="82.67" r="4.00"/>
    <circle cx="88.89" cy="73.70" r="4.00"/>
    <circle cx="115.08" cy="103.94" r="4.00"/>
    <circle cx="83.96" cy="64.78" r="4.00"/>
    <circle cx="71.61" cy="49.03" r="4.00"/>
    <circle cx="110.16" cy="95.01" r="4.00"/>
    <circle cx="79.02" cy="55.89" r="4.00"/>
    <circle cx="105.23" cy="86.14" r="4.00"/>
    <circle cx="131.47" cy="116.40" r="4.00"/>
    <circle cx="102.98" cy="75.27" r="4.00"/>
    <circle cx="80.47" cy="42.19" r="4.00"/>
    <circle cx="98.06" cy="66.48" r="4.00"/>
    <circle cx="93.13" cy="57.71" r="4.00"/>
    <circle cx="88.19" cy="48.96" r="4.00"/>
    <circle cx="129.38" cy="105.58" r="4.00"/>
    <circle cx="124.47" cy="96.84" r="4.00"/>
    <circle cx="119.53" cy="88.11" r="4.00"/>
    <circle cx="114.58" cy="79.40" r="4.00"/>
    <circle cx="89.75" cy="35.94" r="4.00"/>
    <circle cx="112.77" cy="68.74" r="4.00"/>
    <circle cx="107.80" cy="60.06" r="4.00"/>
    <circle cx="102.82" cy="51.38" r="4.00"/>
    <circle cx="97.84" cy="42.70" r="4.00"/>
    <circle cx="141.16" cy="110.06" r="4.00"/>
    <circle cx="99.42" cy="30.31" r="4.00"/>
    <circle cx="124.54" cy="73.59" r="4.00"/>
    <circle cx="129.57" cy="82.24" r="4.00"/>
    <circle cx="134.62" cy="90.89" r="4.00"/>
    <circle cx="107.92" cy="37.16" r="4.00"/>
    <circle cx="139.68" cy="99.54" r="4.00"/>
    <circle cx="112.97" cy="45.81" r="4.00"/>
    <circle cx="118.04" cy="54.46" r="4.00"/>
    <circle cx="123.11" cy="63.11" r="4.00"/>
    <circle cx="109.45" cy="25.33" r="4.00"/>
    <circle cx="118.37" cy="32.35" r="4.00"/>
    <circle cx="123.52" cy="41.04" r="4.00"/>
    <circle cx="135.00" cy="68.76" r="4.00"/>
    <circle cx="128.70" cy="49.74" r="4.00"/>
    <circle cx="140.18" cy="77.46" r="4.00"/>
    <circle cx="133.92" cy="58.44" r="4.00"/>
    <circle cx="119.78" cy="21.03" r="4.00"/>
    <circle cx="151.66" cy="105.19" r="4.00"/>
    <circle cx="145.40" cy="86.18" r="4.00"/>
    <circle cx="150.68" cy="94.91" r="4.00"/>
    <circle cx="129.13" cy="28.30" r="4.00"/>
    <circle cx="134.41" cy="37.10" r="4.00"/>
    <circle cx="130.37" cy="17.41" r="4.00"/>
    <circle cx="139.73" cy="45.92" r="4.00"/>
    <circle cx="145.88" cy="64.95" r="4.00"/>
    <circle cx="145.10" cy="54.77" r="4.00"/>
    <circle cx="151.24" cy="73.83" r="4.00"/>
    <circle cx="140.16" cy="25.04" r="4.00"/>
    <circle cx="156.67" cy="82.76" r="4.00"/>
    <circle cx="145.57" cy="34.01" r="4.00"/>
    <circle cx="141.17" cy="14.49" r="4.00"/>
    <circle cx="162.76" cy="101.88" r="4.00"/>
    <circle cx="151.03" cy="43.03" r="4.00"/>
    <circle cx="162.20" cy="91.78" r="4.00"/>
    <circle cx="157.08" cy="62.21" r="4.00"/>
    <circle cx="156.58" cy="52.13" r="4.00"/>
    <circle cx="151.40" cy="22.58" r="4.00"/>
    <circle cx="152.14" cy="12.30" r="4.00"/>
    <circle cx="162.61" cy="71.38" r="4.00"/>
    <circle cx="156.93" cy="31.78" r="4.00"/>
    <circle cx="162.54" cy="41.09" r="4.00"/>
    <circle cx="168.25" cy="80.69" r="4.00"/>
    <circle cx="162.78" cy="20.93" r="4.00"/>
    <circle cx="163.24" cy="10.83" r="4.00"/>
    <circle cx="168.49" cy="60.55" r="4.00"/>
    <circle cx="168.24" cy="50.53" r="4.00"/>
    <circle cx="168.43" cy="30.45" r="4.00"/>
    <circle cx="174.21" cy="100.21" r="4.00"/>
    <circle cx="174.03" cy="90.20" r="4.00"/>
    <circle cx="174.18" cy="70.15" r="4.00"/>
    <circle cx="174.17" cy="40.12" r="4.00"/>
    <circle cx="174.25" cy="20.10" r="4.00"/>
    <circle cx="174.40" cy="10.09" r="4.00"/>
    <circle cx="180.00" cy="30.00" r="4.00"/>
    <circle cx="180.00" cy="50.00" r="4.00"/>
    <circle cx="180.00" cy="60.00" r="4.00"/>
    <circle cx="180.00" cy="80.00" r="4.00"/>
    <circle cx="185.60" cy="10.09" r="4.00"/>
    <circle cx="185.75" cy="20.10" r="4.00"/>
    <circle cx="185.83" cy="40.12" r="4.00"/>
    <circle cx="185.82" cy="70.15" r="4.00"/>
    <circle cx="185.97" cy="90.20" r="4.00"/>
    <circle cx="185.79" cy="100.21" r="4.00"/>
    <circle cx="191.57" cy="30.45" r="4.00"/>
    <circle cx="191.76" cy="50.53" r="4.00"/>
    <circle cx="191.51" cy="60.55" r="4.00"/>
    <circle cx="196.76" cy="10.83" r="4.00"/>
    <circle cx="197.22" cy="20.93" r="4.00"/>
    <circle cx="191.75" cy="80.69" r="4.00"/>
    <circle cx="197.46" cy="41.09" r="4.00"/>
    <circle cx="203.07" cy="31.78" r="4.00"/>
    <circle cx="197.39" cy="71.38" r="4.00"/>
    <circle cx="207.86" cy="12.30" r="4.00"/>
    <circle cx="208.60" cy="22.58" r="4.00"/>
    <circle cx="203.42" cy="52.13" r="4.00"/>
    <circle cx="202.92" cy="62.21" r="4.00"/>
    <circle cx="197.80" cy="91.78" r="4.00"/>
    <circle cx="208.97" cy="43.03" r="4.00"/>
    <circle cx="197.24" cy="101.88" r="4.00"/>
    <circle cx="218.83" cy="14.49" r="4.00"/>
    <circle cx="214.43" cy="34.01" r="4.00"/>
    <circle cx="203.33" cy="82.76" r="4.00"/>
    <circle cx="219.84" cy="25.04" r="4.00"/>
    <circle cx="208.76" cy="73.83" r="4.00"/>
    <circle cx="214.90" cy="54.77" r="4.00"/>
    <circle cx="214.12" cy="64.95" r="4.00"/>
    <circle cx="220.27" cy="45.92" r="4.00"/>
    <circle cx="229.63" cy="17.41" r="4.00"/>
    <circle cx="225.59" cy="37.10" r="4.00"/>
    <circle cx="230.87" cy="28.30" r="4.00"/>
    <circle cx="209.32" cy="94.91" r="4.00"/>
    <circle cx="214.60" cy="86.18" r="4.00"/>
    <circle cx="208.34" cy="105.19" r="4.00"/>
    <circle cx="240.22" cy="21.03" r="4.00"/>
    <circle cx="226.08" cy="58.44" r="4.00"/>
    <circle cx="219.82" cy="77.46" r="4.00"/>
    <circle cx="231.30" cy="49.74" r="4.00"/>
    <circle cx="225.00" cy="68.76" r="4.00"/>
    <circle cx="236.48" cy="41.04" r="4.00"/>
    <circle cx="241.63" cy="32.35" r="4.00"/>
    <circle cx="250.55" cy="25.33" r="4.00"/>
    <circle cx="236.89" cy="63.11" r="4.00"/>
    <circle cx="241.96" cy="54.46" r="4.00"/>
    <circle cx="247.03" cy="45.81" r="4.00"/>
    <circle cx="220.32" cy="99.54" r="4.00"/>
    <circle cx="252.08" cy="37.16" r="4.00"/>
    <circle cx="225.38" cy="90.89" r="4.00"/>
    <circle cx="230.43" cy="82.24" r="4.00"/>
    <circle cx="235.46" cy="73.59" r="4.00"/>
  </g>
  <g style="fill:#BFBFBF; stroke-width:0.00; stroke:#000000" id="IND">
    <circle cx="260.58" cy="30.31" r="4.00"/>
    <circle cx="218.84" cy="110.06" r="4.00"/>
    <circle cx="262.16" cy="42.70" r="4.00"/>
    <circle cx="257.18" cy="51.38" r="4.00"/>
  </g>
  <g style="fill:#AFFF69; stroke-width:0.00; stroke:#000000" id="BAP">
    <circle cx="252.20" cy="60.06" r="4.00"/>
    <circle cx="247.23" cy="68.74" r="4.00"/>
    <circle cx="270.25" cy="35.94" r="4.00"/>
    <circle cx="245.42" cy="79.40" r="4.00"/>
    <circle cx="240.47" cy="88.11" r="4.00"/>
  </g>
  <g style="fill:#5BFF42; stroke-width:0.00; stroke:#000000" id="AML">
    <circle cx="235.53" cy="96.84" r="4.00"/>
  </g>
  <g style="fill:#00800D; stroke-width:0.00; stroke:#000000" id="PML(Q)">
    <circle cx="230.62" cy="105.58" r="4.00"/>
    <circle cx="271.81" cy="48.96" r="4.00"/>
    <circle cx="266.87" cy="57.71" r="4.00"/>
    <circle cx="261.94" cy="66.48" r="4.00"/>
    <circle cx="279.53" cy="42.19" r="4.00"/>
  </g>
  <g style="fill:#228000; stroke-width:0.00; stroke:#000000" id="PML(N)">
    <circle cx="257.02" cy="75.27" r="4.00"/>
    <circle cx="228.53" cy="116.40" r="4.00"/>
    <circle cx="254.77" cy="86.14" r="4.00"/>
    <circle cx="280.98" cy="55.89" r="4.00"/>
    <circle cx="249.84" cy="95.01" r="4.00"/>
    <circle cx="288.39" cy="49.03" r="4.00"/>
    <circle cx="276.04" cy="64.78" r="4.00"/>
    <circle cx="244.92" cy="103.94" r="4.00"/>
    <circle cx="271.11" cy="73.70" r="4.00"/>
    <circle cx="266.18" cy="82.67" r="4.00"/>
    <circle cx="240.02" cy="112.93" r="4.00"/>
    <circle cx="289.64" cy="63.47" r="4.00"/>
    <circle cx="296.77" cy="56.45" r="4.00"/>
    <circle cx="263.43" cy="93.75" r="4.00"/>
    <circle cx="284.64" cy="72.53" r="4.00"/>
    <circle cx="279.64" cy="81.66" r="4.00"/>
    <circle cx="258.42" cy="102.86" r="4.00"/>
    <circle cx="237.20" cy="124.07" r="4.00"/>
    <circle cx="274.63" cy="90.87" r="4.00"/>
    <circle cx="304.64" cy="64.40" r="4.00"/>
    <circle cx="253.41" cy="112.09" r="4.00"/>
    <circle cx="297.73" cy="71.65" r="4.00"/>
    <circle cx="292.62" cy="80.92" r="4.00"/>
    <circle cx="248.37" cy="121.47" r="4.00"/>
    <circle cx="271.32" cy="102.15" r="4.00"/>
    <circle cx="287.48" cy="90.29" r="4.00"/>
    <circle cx="311.98" cy="72.85" r="4.00"/>
    <circle cx="305.20" cy="80.38" r="4.00"/>
    <circle cx="266.13" cy="111.58" r="4.00"/>
    <circle cx="282.31" cy="99.79" r="4.00"/>
    <circle cx="299.93" cy="89.90" r="4.00"/>
    <circle cx="244.67" cy="132.91" r="4.00"/>
    <circle cx="260.88" cy="121.19" r="4.00"/>
    <circle cx="318.74" cy="81.76" r="4.00"/>
    <circle cx="294.58" cy="99.56" r="4.00"/>
    <circle cx="278.37" cy="111.27" r="4.00"/>
    <circle cx="312.04" cy="89.63" r="4.00"/>
    <circle cx="255.51" cy="131.03" r="4.00"/>
    <circle cx="289.14" cy="109.38" r="4.00"/>
    <circle cx="306.52" cy="99.42" r="4.00"/>
    <circle cx="272.88" cy="121.06" r="4.00"/>
    <circle cx="324.91" cy="91.11" r="4.00"/>
    <circle cx="300.88" cy="109.38" r="4.00"/>
    <circle cx="318.19" cy="99.35" r="4.00"/>
    <circle cx="284.51" cy="121.02" r="4.00"/>
    <circle cx="267.23" cy="131.09" r="4.00"/>
    <circle cx="312.36" cy="109.42" r="4.00"/>
    <circle cx="250.79" cy="142.74" r="4.00"/>
    <circle cx="330.44" cy="100.83" r="4.00"/>
    <circle cx="295.09" cy="119.54" r="4.00"/>
    <circle cx="278.58" cy="131.20" r="4.00"/>
    <circle cx="323.62" cy="109.49" r="4.00"/>
    <circle cx="306.34" cy="119.69" r="4.00"/>
    <circle cx="261.33" cy="141.45" r="4.00"/>
    <circle cx="335.32" cy="110.90" r="4.00"/>
    <circle cx="289.68" cy="131.32" r="4.00"/>
    <circle cx="317.41" cy="119.84" r="4.00"/>
    <circle cx="272.37" cy="141.68" r="4.00"/>
    <circle cx="300.08" cy="130.20" r="4.00"/>
    <circle cx="328.32" cy="119.99" r="4.00"/>
    <circle cx="310.93" cy="130.42" r="4.00"/>
    <circle cx="283.19" cy="141.89" r="4.00"/>
    <circle cx="339.53" cy="121.27" r="4.00"/>
    <circle cx="255.43" cy="153.35" r="4.00"/>
    <circle cx="321.64" cy="130.62" r="4.00"/>
    <circle cx="293.85" cy="142.07" r="4.00"/>
    <circle cx="332.25" cy="130.80" r="4.00"/>
    <circle cx="265.71" cy="152.55" r="4.00"/>
    <circle cx="304.10" cy="141.27" r="4.00"/>
    <circle cx="343.05" cy="131.89" r="4.00"/>
    <circle cx="314.60" cy="141.49" r="4.00"/>
    <circle cx="276.23" cy="152.80" r="4.00"/>
    <circle cx="325.02" cy="141.69" r="4.00"/>
    <circle cx="286.63" cy="153.00" r="4.00"/>
    <circle cx="335.39" cy="141.86" r="4.00"/>
    <circle cx="296.96" cy="153.17" r="4.00"/>
    <circle cx="345.86" cy="142.73" r="4.00"/>
    <circle cx="307.09" cy="152.65" r="4.00"/>
    <circle cx="317.34" cy="152.83" r="4.00"/>
    <circle cx="258.49" cy="164.51" r="4.00"/>
    <circle cx="327.55" cy="152.99" r="4.00"/>
    <circle cx="268.59" cy="164.14" r="4.00"/>
    <circle cx="337.73" cy="153.12" r="4.00"/>
    <circle cx="278.76" cy="164.29" r="4.00"/>
    <circle cx="347.96" cy="153.72" r="4.00"/>
  </g>
  <g style="fill:#004C00; stroke-width:0.00; stroke:#000000" id="MMA">
    <circle cx="288.89" cy="164.41" r="4.00"/>
    <circle cx="299.00" cy="164.51" r="4.00"/>
    <circle cx="309.04" cy="164.26" r="4.00"/>
    <circle cx="319.12" cy="164.36" r="4.00"/>
    <circle cx="329.19" cy="164.45" r="4.00"/>
    <circle cx="339.25" cy="164.52" r="4.00"/>
    <circle cx="349.32" cy="164.83" r="4.00"/>
    <circle cx="259.90" cy="176.00" r="4.00"/>
    <circle cx="269.91" cy="176.00" r="4.00"/>
    <circle cx="279.92" cy="176.00" r="4.00"/>
    <circle cx="289.93" cy="176.00" r="4.00"/>
    <circle cx="299.93" cy="176.00" r="4.00"/>
    <circle cx="309.94" cy="176.00" r="4.00"/>
    <circle cx="319.94" cy="176.00" r="4.00"/>
    <circle cx="329.95" cy="176.00" r="4.00"/>
    <circle cx="339.95" cy="176.00" r="4.00"/>
  </g>
  <g style="fill:#F0FFF9; stroke-width:0.32; stroke:#000000" id="Vacant">
    <circle cx="349.95" cy="176.00" r="3.84"/>
  </g>
</g>
</svg>
